<svg width="15" height="13" viewBox="0 0 15 13" fill="none" xmlns="http://www.w3.org/2000/svg">
<path d="M2.50002 0C1.11925 0 0 1.26751 0 2.69794C0 3.5686 0.446196 4.33649 0.991769 4.81415C1.47075 5.23423 1.76462 5.55755 1.82321 6.25923V13H3.17631V6.25923C3.2349 5.55755 3.52925 5.23423 4.00823 4.81415C4.5538 4.33649 5 3.56858 5 2.69794C5.00003 1.26751 3.8803 0 2.50002 0Z" fill="black"/>
<path d="M9.48897 0.946772V3.39577C9.48897 3.55229 9.34515 3.67911 9.16767 3.67911H9.08186C8.90437 3.67911 8.76056 3.55229 8.76056 3.39577V0.935572C8.76056 0.531405 8.45292 0.411019 8.15745 0.411019C7.86199 0.411019 7.55386 0.531405 7.55386 0.935572V3.39574C7.55386 3.55226 7.41004 3.67908 7.23305 3.67908H7.14724C6.96976 3.67908 6.82644 3.55226 6.82644 3.39574V0.946744C6.82644 0.223574 5.65728 0.248504 5.65728 0.954476C5.65728 1.79977 5.65728 3.29297 5.65728 3.29297C5.65241 4.59229 6.00392 4.92893 6.58558 5.33395C7.05363 5.65986 7.45344 5.84689 7.45344 6.65605V13H8.8615V6.65608C8.8615 5.84692 9.26131 5.65988 9.72936 5.33397C10.3105 4.92895 10.6625 4.59231 10.6572 3.293C10.6572 3.293 10.6572 1.79977 10.6572 0.954504C10.6571 0.248532 9.48897 0.223574 9.48897 0.946772Z" fill="black"/>
<path d="M12.6458 1.19054C12.3932 1.94167 11.6336 3.66879 11.4438 5.18995C11.2545 6.7107 12.1402 7.21761 12.7091 8.06246L13.0235 8.76714V13H14.411H14.4177C14.4177 12.7923 14.4177 9.1945 14.4177 6.67027C14.4177 4.17268 14.4177 1.62911 14.4177 1.19054C14.4177 0.288927 13.0259 0.0636464 12.6458 1.19054Z" fill="black"/>
</svg>
