<svg width="21" height="13" viewBox="0 0 21 13" fill="none" xmlns="http://www.w3.org/2000/svg">
<path d="M5.34604 0H3.20751C2.91764 0 2.68262 0.390847 2.68262 0.872448V12.1276C2.68262 12.6091 2.91764 13 3.20751 13H5.34608C5.63598 13 5.871 12.6091 5.871 12.1276V0.872448C5.871 0.390847 5.63595 0 5.34604 0Z" fill="black"/>
<path d="M1.3633 2.73656H0.539146C0.241548 2.73656 0 3.06232 0 3.46367V9.53622C0 9.93764 0.241548 10.2633 0.539146 10.2633H1.3633C1.6609 10.2633 1.90244 9.93758 1.90244 9.53622V3.46367C1.90244 3.06232 1.6609 2.73656 1.3633 2.73656Z" fill="black"/>
<path d="M13.3366 4.96055H6.74121V8.03939H13.3366V4.96055Z" fill="black"/>
<path d="M16.8682 0H14.7296C14.4398 0 14.2047 0.390847 14.2047 0.872448V12.1276C14.2047 12.6091 14.4397 13 14.7296 13H16.8682C17.158 13 17.3931 12.6091 17.3931 12.1276V0.872448C17.3931 0.390847 17.1581 0 16.8682 0Z" fill="black"/>
<path d="M19.5385 2.73656H18.7144C18.4168 2.73656 18.1753 3.06232 18.1753 3.46367V9.53622C18.1753 9.93764 18.4168 10.2633 18.7144 10.2633H19.5385C19.8362 10.2633 20.0777 9.93758 20.0777 9.53622V3.46367C20.0777 3.06232 19.8361 2.73656 19.5385 2.73656Z" fill="black"/>
</svg>
