<?xml version="1.0" standalone="no"?>
<!DOCTYPE svg PUBLIC "-//W3C//DTD SVG 20010904//EN"
 "http://www.w3.org/TR/2001/REC-SVG-20010904/DTD/svg10.dtd">
<svg version="1.0" xmlns="http://www.w3.org/2000/svg"
 width="781.000000pt" height="781.000000pt" viewBox="0 0 781.000000 781.000000"
 preserveAspectRatio="xMidYMid meet">
<metadata>
Created by potrace 1.14, written by Peter Selinger 2001-2017
</metadata>
<g transform="translate(0.000000,781.000000) scale(0.100000,-0.100000)"
fill="#000000" stroke="none">
<path d="M2993 6050 c-183 -38 -323 -134 -439 -301 -83 -119 -89 -144 -86
-389 2 -155 6 -227 17 -260 8 -25 17 -90 20 -145 6 -110 15 -152 50 -232 13
-29 34 -88 46 -131 25 -92 60 -160 97 -187 23 -17 43 -20 127 -20 55 0 106 -4
113 -8 6 -5 12 -19 12 -33 0 -18 -5 -24 -22 -24 -45 0 -150 -64 -221 -135 -55
-55 -77 -70 -101 -71 -118 -3 -252 -74 -358 -189 -88 -96 -161 -236 -189 -365
-5 -25 -12 -54 -16 -64 -4 -16 4 -13 43 15 78 56 80 56 34 -9 -24 -35 -77 -93
-119 -130 -42 -37 -87 -80 -100 -96 -14 -15 -29 -33 -35 -40 -94 -102 -162
-301 -171 -496 -2 -36 -4 -67 -4 -69 -1 -3 -14 15 -30 40 -57 88 -157 170
-346 284 -71 43 -156 101 -188 129 -49 41 -62 48 -75 38 -91 -64 -254 -130
-330 -135 l-39 -2 17 -25 c10 -14 55 -81 100 -150 191 -287 410 -545 607 -714
42 -36 114 -84 176 -115 174 -89 251 -80 365 44 31 34 81 100 110 146 140 219
140 220 153 293 6 39 13 80 15 91 17 89 46 311 46 360 1 33 -8 97 -20 142 -24
97 -22 170 8 266 11 37 23 67 26 67 2 0 2 -21 -1 -47 -24 -184 16 -292 124
-342 l36 -16 -73 -3 -74 -3 7 -27 c17 -63 12 -119 -31 -297 -41 -168 -38 -261
15 -465 37 -146 39 -162 36 -275 -2 -66 -6 -139 -10 -162 l-7 -43 171 0 171 0
0 43 c1 37 5 66 26 156 2 13 13 40 24 61 l19 38 -36 118 -35 119 -2 220 c0
121 -5 228 -10 238 -16 33 10 17 99 -62 122 -106 215 -197 185 -180 -41 24
-91 23 -129 -3 -49 -33 -72 -85 -76 -170 -4 -80 17 -147 65 -208 24 -32 106
-80 135 -80 8 0 15 -5 15 -11 0 -5 -4 -8 -8 -5 -5 3 -31 -8 -59 -24 -62 -35
-107 -102 -127 -188 l-14 -62 553 0 554 0 -79 117 c-95 144 -163 272 -197 372
-23 68 -25 86 -20 176 7 109 18 173 49 279 34 113 120 314 187 436 34 63 64
124 66 135 2 11 14 75 25 142 11 67 23 132 26 145 2 13 7 37 9 53 14 80 51
208 81 285 79 198 220 312 396 322 54 3 51 11 -20 57 -71 45 -157 56 -282 35
-51 -8 -48 -7 -113 -28 -26 -8 -45 -11 -42 -6 4 6 11 10 17 10 5 0 24 6 41 14
18 8 57 22 87 32 30 9 48 19 40 22 -8 2 -38 19 -66 38 -28 18 -99 57 -158 86
l-108 52 -40 85 c-38 81 -41 84 -50 61 -6 -14 -11 -71 -12 -127 -1 -98 -9
-118 -24 -57 -12 50 -5 226 11 284 8 30 41 127 72 215 78 221 94 292 95 430 3
301 -216 556 -540 627 -75 16 -225 21 -287 8z m312 -90 c248 -78 403 -231 453
-446 29 -125 20 -196 -44 -379 -107 -305 -124 -360 -127 -401 -1 -24 -5 -44
-9 -44 -11 0 -10 109 1 148 11 37 8 39 -19 12 -11 -11 -29 -20 -39 -20 -16 0
-13 6 14 33 38 38 55 90 59 182 5 109 -38 174 -107 160 l-32 -6 28 25 c30 28
84 35 104 15 18 -18 50 -1 68 37 61 129 -3 389 -126 513 -90 90 -242 142 -418
142 -242 0 -465 -133 -552 -330 -27 -61 -34 -46 -11 22 53 148 211 293 380
348 81 26 278 20 377 -11z m285 -1290 c0 -5 -4 -10 -10 -10 -5 0 -10 5 -10 10
0 6 5 10 10 10 6 0 10 -4 10 -10z m-658 -1017 c-14 -26 -61 -189 -69 -243 -4
-25 -8 -83 -8 -130 0 -129 34 -198 120 -243 l30 -16 -50 5 c-80 8 -119 22
-148 52 -49 51 -50 123 -6 297 20 78 125 312 135 302 3 -3 1 -14 -4 -24z"/>
<path d="M4925 5909 c-143 -20 -218 -42 -308 -93 -83 -46 -141 -111 -194 -217
-54 -109 -71 -169 -71 -259 0 -128 54 -273 162 -435 55 -83 153 -278 161 -320
37 -197 36 -206 -8 -90 -39 100 -42 102 -41 18 2 -127 -20 -183 -100 -255
l-41 -37 31 -1 c32 0 131 -46 174 -80 l25 -20 -28 10 c-168 60 -343 48 -489
-33 -155 -87 -215 -209 -264 -542 -3 -22 -8 -51 -10 -65 -2 -14 -7 -47 -10
-75 -6 -54 -32 -164 -42 -180 -4 -5 -7 -15 -8 -21 -1 -6 -29 -66 -63 -133 -57
-114 -103 -230 -115 -291 -13 -68 -29 -130 -61 -226 -20 -61 -35 -125 -35
-152 1 -136 73 -298 248 -557 l68 -100 262 -3 c144 -1 262 0 262 3 0 3 -22 62
-49 130 -79 195 -158 343 -221 410 -29 30 -29 30 -16 91 10 47 23 73 61 120
118 144 214 322 260 480 21 73 27 106 34 192 1 6 4 12 9 12 11 0 -9 -277 -23
-321 -4 -12 13 -47 53 -106 103 -152 172 -309 172 -391 0 -102 -37 -171 -164
-305 -40 -43 -82 -93 -92 -112 -18 -35 -18 -35 11 -120 l30 -85 532 0 533 0 0
96 c0 72 -4 103 -17 125 -17 28 -17 28 33 101 27 40 51 75 54 78 8 8 63 92 78
120 41 73 80 231 77 308 -1 31 1 39 7 27 15 -26 12 -126 -5 -182 -18 -59 -61
-152 -111 -242 -63 -111 -75 -156 -70 -267 2 -54 6 -108 8 -119 3 -11 5 -26 5
-32 1 -10 36 -13 140 -13 l139 0 6 25 c7 28 9 190 2 220 -27 128 -24 179 19
340 33 126 34 134 29 270 -3 77 -7 181 -8 230 l-3 90 47 60 c112 144 141 249
105 371 -17 57 -74 148 -132 210 -84 91 -140 154 -183 205 -25 29 -60 68 -78
86 -18 18 -30 33 -26 33 14 0 120 -85 191 -154 80 -78 79 -79 26 64 -51 134
-75 179 -123 226 -90 89 -230 130 -462 134 -18 0 -40 14 -68 44 -41 43 -89
112 -90 129 0 5 19 5 43 1 54 -9 113 -7 136 5 10 6 33 38 51 73 18 35 58 98
88 142 86 125 95 151 97 291 1 116 2 122 33 175 17 30 32 64 33 75 4 83 1 302
-4 356 -18 181 -100 315 -234 382 -124 63 -327 96 -468 76z m310 -54 c96 -26
145 -55 224 -133 41 -40 72 -75 69 -77 -2 -3 -29 19 -59 48 -99 95 -231 147
-377 149 -140 1 -254 -25 -392 -91 -57 -27 -154 -132 -190 -204 -29 -59 -33
-78 -38 -176 -8 -183 30 -320 125 -455 49 -68 24 -48 -32 26 -54 71 -82 125
-116 218 -20 55 -24 83 -23 185 0 100 4 129 22 176 93 235 316 362 622 353 58
-1 132 -10 165 -19z m-471 -666 l25 -12 -32 -16 c-84 -42 -89 -184 -10 -294
l34 -49 -31 19 c-100 57 -147 198 -100 300 14 32 26 44 52 52 18 5 34 10 35
10 1 1 13 -4 27 -10z m529 -1572 c176 -80 267 -296 207 -490 -11 -36 -29 -76
-40 -89 l-20 -23 7 30 c5 17 8 73 8 125 -1 77 -6 109 -27 168 -44 121 -120
230 -203 290 -27 19 -28 21 -7 17 13 -2 47 -15 75 -28z"/>
<path d="M4285 5780 c-84 -24 -125 -44 -181 -86 -118 -90 -183 -209 -188 -349
-4 -91 15 -170 64 -264 60 -115 130 -194 275 -308 185 -146 262 -260 266 -392
1 -28 4 -51 6 -51 2 0 13 21 25 48 18 40 22 66 22 167 0 147 -11 177 -125 368
-99 164 -135 237 -152 313 -19 80 -13 190 14 272 25 77 94 187 149 236 l38 34
-27 12 c-44 18 -123 18 -186 0z m92 -51 c-138 -32 -241 -157 -265 -319 -14
-93 -6 -232 18 -310 20 -68 73 -187 89 -200 20 -17 73 -82 56 -70 -67 50 -141
142 -184 227 -52 103 -71 173 -76 277 -4 62 22 196 37 196 4 0 8 6 8 13 0 19
79 106 121 132 53 34 147 64 194 64 l40 -1 -38 -9z"/>
<path d="M450 4287 c-258 -77 -427 -306 -436 -593 -10 -288 165 -530 436 -604
68 -19 253 -20 335 -3 409 86 620 562 405 917 -35 57 -65 92 -125 146 -37 34
-37 33 9 -22 56 -67 64 -96 35 -126 -31 -35 -87 -33 -150 3 -24 14 -47 25 -51
25 -5 0 7 -20 26 -45 116 -151 103 -360 -30 -491 -71 -70 -153 -102 -254 -99
-309 10 -449 387 -225 608 49 48 109 81 185 103 l45 12 -35 1 c-48 1 -125 -21
-183 -52 -39 -20 -54 -23 -79 -16 -38 10 -37 9 -47 47 -7 23 -5 40 11 72 17
35 32 46 103 81 46 22 102 44 126 48 43 9 43 9 9 9 -19 1 -69 -9 -110 -21z"/>
<path d="M7273 4300 c61 -16 181 -75 206 -101 44 -48 43 -130 -2 -146 -30 -9
-54 -5 -102 19 -55 29 -91 39 -155 43 l-55 5 46 -14 c191 -55 307 -209 293
-389 -5 -70 -45 -165 -91 -213 -137 -145 -372 -146 -506 -1 -128 138 -133 351
-12 496 32 37 24 39 -34 6 -63 -36 -119 -38 -151 -3 -29 31 -26 46 25 111 25
31 43 57 40 57 -9 0 -98 -96 -127 -138 -181 -262 -116 -637 145 -836 44 -34
161 -90 221 -106 55 -15 232 -19 313 -7 64 9 154 42 208 75 114 72 226 235
259 379 36 161 2 355 -90 499 -91 145 -261 253 -421 269 -48 5 -48 5 -10 -5z"/>
<path d="M580 3858 c-28 -9 -68 -62 -73 -97 -4 -29 -23 -41 -64 -41 -35 0 -59
19 -79 65 l-13 30 -1 -46 c-1 -127 95 -266 210 -304 163 -54 320 24 366 183
19 64 11 81 -11 25 -19 -48 -68 -79 -108 -69 -38 9 -50 37 -34 78 8 19 11 46
7 63 l-6 30 -14 -42 c-17 -54 -38 -73 -88 -80 -112 -15 -162 119 -71 190 31
24 23 30 -21 15z"/>
<path d="M7214 3849 c62 -49 70 -118 19 -171 -57 -60 -161 -22 -177 64 -7 35
-8 35 -15 3 -5 -18 -2 -43 5 -63 15 -37 10 -58 -17 -72 -49 -27 -109 13 -133
88 l-15 47 5 -50 c19 -201 223 -306 411 -213 98 49 163 153 170 273 l4 70 -15
-38 c-17 -46 -41 -66 -78 -67 -43 0 -57 10 -68 51 -11 42 -41 75 -78 90 -39
15 -46 10 -18 -12z"/>
<path d="M6650 3084 c-93 -61 -321 -176 -385 -193 -22 -6 -87 -35 -145 -64
l-104 -53 -3 -50 c-3 -77 -12 -196 -17 -234 -3 -19 -8 -51 -11 -70 -3 -19 -8
-52 -11 -74 -3 -21 -8 -48 -10 -60 -11 -50 -15 -96 -10 -96 26 0 337 215 451
311 21 19 75 65 120 102 44 38 148 135 230 215 83 81 164 158 180 172 47 38
49 47 14 64 -18 9 -36 16 -42 16 -9 0 -39 12 -125 51 -23 10 -44 19 -45 19 -1
0 -40 -25 -87 -56z"/>
</g>
</svg>
